<svg width="28" height="28" viewBox="0 0 28 28" fill="none" xmlns="http://www.w3.org/2000/svg">
<path fill-rule="evenodd" clip-rule="evenodd" d="M11.666 16.75C12.2612 16.75 12.6322 16.7488 12.9531 16.791C15.0845 17.0717 16.7613 18.7486 17.042 20.8799C17.0842 21.2008 17.083 21.5716 17.083 22.167C17.083 22.4526 17.0847 22.6685 17.0596 22.8594C16.8969 24.093 15.926 25.064 14.6924 25.2266C14.5015 25.2517 14.2854 25.25 14 25.25H4.66601C4.38056 25.25 4.16447 25.2517 3.97363 25.2266C2.74009 25.0638 1.76903 24.093 1.60644 22.8594C1.58131 22.6685 1.583 22.4526 1.583 22.167C1.583 21.5716 1.58177 21.2008 1.62402 20.8799C1.90468 18.7486 3.58169 17.0718 5.71288 16.791C6.03378 16.7488 6.4048 16.75 6.99999 16.75H11.666ZM21 16.75C21.5952 16.75 21.9662 16.7488 22.2871 16.791C24.4183 17.0718 26.0953 18.7486 26.376 20.8799C26.4182 21.2008 26.417 21.5716 26.417 22.167C26.417 22.4526 26.4187 22.6685 26.3935 22.8594C26.231 24.093 25.2599 25.0638 24.0264 25.2266C23.8355 25.2517 23.6194 25.25 23.334 25.25H18.667C18.2528 25.25 17.917 24.9142 17.917 24.5C17.917 24.0858 18.2528 23.75 18.667 23.75H23.334C23.6668 23.75 23.7612 23.7483 23.8301 23.7393C24.3908 23.6653 24.8324 23.2239 24.9062 22.6631C24.9153 22.5942 24.917 22.5 24.917 22.167C24.917 21.5244 24.9158 21.275 24.8896 21.0762C24.6977 19.6179 23.549 18.4695 22.0908 18.2773C21.892 18.2512 21.6423 18.25 21 18.25H18.667C18.2528 18.25 17.917 17.9142 17.917 17.5C17.917 17.0858 18.2528 16.75 18.667 16.75H21ZM6.99999 18.25C6.35764 18.25 6.10798 18.2512 5.90917 18.2773C4.45094 18.4695 3.30233 19.6179 3.11035 21.0762C3.08422 21.275 3.083 21.5244 3.083 22.167C3.083 22.5 3.08468 22.5942 3.09374 22.6631C3.16758 23.2239 3.60915 23.6653 4.16992 23.7393C4.23881 23.7483 4.33319 23.75 4.66601 23.75H14C14.3326 23.75 14.4272 23.7483 14.4961 23.7393C15.057 23.6654 15.4984 23.224 15.5723 22.6631C15.5813 22.5942 15.583 22.5001 15.583 22.167C15.583 21.5244 15.5818 21.275 15.5557 21.0762C15.3636 19.6178 14.2152 18.4693 12.7568 18.2773C12.558 18.2513 12.3083 18.25 11.666 18.25H6.99999ZM9.33398 2.75C12.3252 2.75035 14.75 5.17567 14.75 8.16699C14.7498 11.1582 12.3251 13.5827 9.33398 13.583C6.34254 13.583 3.91716 11.1584 3.91699 8.16699C3.91699 5.17545 6.34244 2.75 9.33398 2.75ZM16.333 2.75C19.3245 2.75 21.75 5.17545 21.75 8.16699C21.7498 11.1584 19.3244 13.583 16.333 13.583C15.9189 13.5828 15.583 13.2471 15.583 12.833C15.5832 12.4191 15.919 12.0832 16.333 12.083C18.496 12.083 20.2498 10.33 20.25 8.16699C20.25 6.00388 18.4961 4.25 16.333 4.25C15.9189 4.24982 15.583 3.91411 15.583 3.5C15.583 3.08589 15.9189 2.75018 16.333 2.75ZM9.33398 4.25C7.17086 4.25 5.41699 6.00388 5.41699 8.16699C5.41716 10.33 7.17097 12.083 9.33398 12.083C11.4967 12.0827 13.2498 10.3297 13.25 8.16699C13.25 6.00409 11.4968 4.25035 9.33398 4.25Z" fill="#6F7273"/>
</svg>
