<svg width="34" height="32" viewBox="0 0 34 32" fill="none" xmlns="http://www.w3.org/2000/svg">
<path d="M0.2969 8.72933C0.452973 6.3548 2.38479 4.49388 4.78971 4.37614C8.27218 4.20563 13.2496 4 17 4C20.7504 4 25.7278 4.20563 29.2103 4.37614C31.6152 4.49388 33.547 6.3548 33.7031 8.72933C33.8526 11.0043 34 13.8036 34 16C34 18.1964 33.8526 20.9957 33.7031 23.2707C33.547 25.6452 31.6152 27.5061 29.2103 27.6239C25.7278 27.7944 20.7504 28 17 28C13.2496 28 8.27218 27.7944 4.78971 27.6239C2.38479 27.5061 0.452973 25.6452 0.2969 23.2707C0.14737 20.9957 0 18.1964 0 16C0 13.8036 0.147371 11.0043 0.2969 8.72933Z" fill="#49494A"/>
<path d="M13 11V21L23 16L13 11Z" fill="white"/>
</svg>
